<svg id="Шар_1" data-name="Шар 1" xmlns="http://www.w3.org/2000/svg" xmlns:xlink="http://www.w3.org/1999/xlink" viewBox="0 0 423 409"><defs><style>.cls-1{fill:none;stroke-miterlimit:10;stroke-width:4px;stroke:url(#Градієнт_без_назви_19);}</style><radialGradient id="Градієнт_без_назви_19" cx="211.06" cy="201.83" r="142.23" gradientUnits="userSpaceOnUse"><stop offset="0" stop-color="#7255bb"/><stop offset="0.35" stop-color="#9555fb"/><stop offset="0.66" stop-color="#5563fb"/><stop offset="1" stop-color="#5595fb"/></radialGradient></defs><path class="cls-1" d="M211.06,61.6a140.39,140.39,0,1,0,99.11,41.12A139.8,139.8,0,0,0,211.06,61.6Zm-75.92,52.73a21.91,21.91,0,0,1,6.74-3.12,30.78,30.78,0,0,1,8.2-1c6,0,12.81,1.39,20.33,4.14a133,133,0,0,1,24.37,12.23c15.5,9.67,30.83,22.52,44.71,36.92a272.32,272.32,0,0,1,35.94,46.12A263.74,263.74,0,0,0,236,163.32c-15.2-14.23-31.87-26.61-48.24-35.21-12.18-6.4-23.24-10.19-32.54-11.3s-16.86.47-22,4.81a18.74,18.74,0,0,0-5.07,6.82,27.5,27.5,0,0,0-2.16,9.31,35,35,0,0,1,2-14.08A20,20,0,0,1,135.14,114.33ZM287,289.33c-6,4.2-14.42,5.19-24.59,3.1s-22.09-7.23-35-15.31c-15.49-9.67-30.83-22.52-44.7-36.92a272.39,272.39,0,0,1-35.95-46.12,263.74,263.74,0,0,0,39.48,46.26C201.38,254.57,218,267,234.42,275.55a119.59,119.59,0,0,0,20.66,8.71,60.39,60.39,0,0,0,17.39,2.93,31.45,31.45,0,0,0,9.26-1.28A20.5,20.5,0,0,0,289,282a18.74,18.74,0,0,0,5.07-6.82,27.55,27.55,0,0,0,2.17-9.31,35.2,35.2,0,0,1-2,14.08A20.08,20.08,0,0,1,287,289.33ZM163.59,161c7.61-1.7,16.73-1.62,26.48,0a133.86,133.86,0,0,1,30.24,8.87,117.34,117.34,0,0,0-30.83-7c-9.84-.77-18.89.1-26.09,2.86a26,26,0,0,0-10,6.47,17.13,17.13,0,0,0-4.44,9.35,21.37,21.37,0,0,0,.73,8.75,35.4,35.4,0,0,0,4.3,9.31,44.6,44.6,0,0,1-7.19-13A20.85,20.85,0,0,1,146,175a16.1,16.1,0,0,1,5.8-8.77A29.15,29.15,0,0,1,163.59,161Zm81.34,22.06.42.27.42.28a.36.36,0,0,0,.12.08l.12.09a63.48,63.48,0,0,1,16.51,15.58c3.81,5.43,5.82,10.95,5.69,16.12a17.1,17.1,0,0,1-2.81,9.1,22.63,22.63,0,0,1-7.77,7c-9.13,5.3-22.57,6.77-36.94,4.88a107.17,107.17,0,0,1-42.47-15.32l-.51-.33-.52-.33-.42-.27c-.13-.1-.27-.19-.41-.28l-.12-.08-.13-.09a63.48,63.48,0,0,1-16.51-15.58c-3.81-5.43-5.81-10.95-5.69-16.12a17.13,17.13,0,0,1,2.82-9.1,22.7,22.7,0,0,1,7.76-7,39.6,39.6,0,0,1,11.45-4.27,65,65,0,0,1,13.88-1.39,98.89,98.89,0,0,1,27.48,4.16,104.66,104.66,0,0,1,26.72,12l.46.29Zm-12.61,55.08a66.32,66.32,0,0,0,14.1-1.42,40.36,40.36,0,0,0,11.65-4.34,23.45,23.45,0,0,0,8.08-7.35,18,18,0,0,0,2.94-9.52,23.24,23.24,0,0,0-1.5-8.48,36.22,36.22,0,0,0-4.7-8.66,44.73,44.73,0,0,1,7.73,12.18,22.23,22.23,0,0,1,1.72,11.4,16.26,16.26,0,0,1-4.25,8.92,25.13,25.13,0,0,1-9.67,6.2c-6.59,2.53-14.74,3.45-23.65,3a112.08,112.08,0,0,1-28.09-5.5,106.39,106.39,0,0,0,13,2.69A90,90,0,0,0,232.32,238.18Zm-68.27-66.94a23.55,23.55,0,0,0-8.08,7.35,18,18,0,0,0-2.93,9.53,23.21,23.21,0,0,0,1.49,8.47,35.92,35.92,0,0,0,4.71,8.66,44.78,44.78,0,0,1-7.74-12.18,22.23,22.23,0,0,1-1.72-11.4,16.28,16.28,0,0,1,4.26-8.92,25.06,25.06,0,0,1,9.67-6.2c6.56-2.52,14.69-3.44,23.56-3a112.12,112.12,0,0,1,28,5.44,97.23,97.23,0,0,0-28.33-3.5C178.09,165.86,170.13,167.72,164.05,171.24Zm75.26,69.82a65.82,65.82,0,0,0,10.35-.77,45.41,45.41,0,0,0,9.07-2.36,26.13,26.13,0,0,0,10-6.47,17.19,17.19,0,0,0,4.43-9.35,21.38,21.38,0,0,0-.72-8.75,35.4,35.4,0,0,0-4.3-9.31,45.07,45.07,0,0,1,7.19,13,20.93,20.93,0,0,1,.76,11.58,16.07,16.07,0,0,1-5.8,8.77,29.15,29.15,0,0,1-11.81,5.2c-7.61,1.7-16.74,1.62-26.5,0a134.73,134.73,0,0,1-30.26-8.88A125.61,125.61,0,0,0,221,239.18,97,97,0,0,0,239.31,241.06Zm6.87,3.68c2.24,0,4.42-.1,6.51-.31a50.64,50.64,0,0,0,6-1A29.77,29.77,0,0,0,271,238.05a16.9,16.9,0,0,0,6-9.18,20.2,20.2,0,0,0,.14-8.74,33.59,33.59,0,0,0-3.58-9.59A43.5,43.5,0,0,1,279.86,224a19.89,19.89,0,0,1-.28,11.52,16.28,16.28,0,0,1-7.48,8.58c-3.64,2.11-8.41,3.45-14.2,4-8.68.77-18.81-.44-29.43-3.22a159.34,159.34,0,0,1-32.36-12.65,145.08,145.08,0,0,0,25.72,9.21A101.42,101.42,0,0,0,246.18,244.74ZM163.4,160.19a29.77,29.77,0,0,0-12.24,5.42,16.89,16.89,0,0,0-6,9.19,20.3,20.3,0,0,0-.14,8.73,33.22,33.22,0,0,0,3.59,9.59,43.32,43.32,0,0,1-6.32-13.49,19.8,19.8,0,0,1,.29-11.52,16.22,16.22,0,0,1,7.47-8.58c3.65-2.11,8.41-3.45,14.21-4,.86-.07,1.74-.13,2.62-.17s1.8-.06,2.71-.06a100.62,100.62,0,0,1,27.29,4.33,162.14,162.14,0,0,1,29.21,11.79,141.16,141.16,0,0,0-33.29-10.88C181.94,158.57,171.76,158.31,163.4,160.19Zm89.18,89c.93,0,1.84,0,2.74-.06s1.78-.09,2.66-.17c6-.53,10.89-1.93,14.66-4.14a17,17,0,0,0,7.76-9,19.07,19.07,0,0,0,.9-8.66,32.34,32.34,0,0,0-2.93-9.88,42.8,42.8,0,0,1,5.43,14,18.93,18.93,0,0,1-1.21,11.4c-1.74,3.67-4.93,6.47-9.36,8.3s-10.09,2.68-16.78,2.47c-9.78-.29-20.9-2.77-32.36-6.9a184,184,0,0,1-34.29-16.77,167.13,167.13,0,0,0,32.29,14.15C232.87,247.31,243.35,249.2,252.58,249.2Zm-88.43-94.51c-6,.53-10.9,1.93-14.67,4.14a17.12,17.12,0,0,0-7.76,9,19.07,19.07,0,0,0-.89,8.66,32.3,32.3,0,0,0,2.92,9.88,42.8,42.8,0,0,1-5.43-14,18.93,18.93,0,0,1,1.21-11.4,16.7,16.7,0,0,1,8.73-8c4.1-1.83,9.34-2.78,15.52-2.78h.94l1,0c9.76.29,20.89,2.77,32.33,6.89a184.78,184.78,0,0,1,34.28,16.76,165.4,165.4,0,0,0-35.51-15.11C185,155.37,173.71,153.84,164.15,154.69Zm92.27,99.65,1,0h1c6.36,0,11.75-1,16-2.91a17.58,17.58,0,0,0,9.06-8.39,18.34,18.34,0,0,0,1.62-8.49,31.71,31.71,0,0,0-2.2-10.05,42.13,42.13,0,0,1,4.43,14.33,18.43,18.43,0,0,1-2.12,11.22c-2.25,3.82-6.13,6.49-11.38,7.93s-11.88,1.67-19.63.6c-10.88-1.51-23-5.4-35.21-11a208.52,208.52,0,0,1-36-21.23,189.82,189.82,0,0,0,37.54,19.76C233.19,251,245.62,254,256.42,254.34Zm-90.72-105c-6.87-.2-12.71.7-17.27,2.61s-7.87,4.82-9.69,8.67a18.15,18.15,0,0,0-1.63,8.48,31.47,31.47,0,0,0,2.21,10,42.17,42.17,0,0,1-4.44-14.33A18.43,18.43,0,0,1,137,153.58a16.74,16.74,0,0,1,8.27-6.86,35.26,35.26,0,0,1,13.61-2.34c1.42,0,2.89.06,4.41.17s3.1.28,4.73.51c10.87,1.5,23,5.39,35.2,11a209,209,0,0,1,36,21.23,189.89,189.89,0,0,0-37.55-19.76C188.93,152.62,176.5,149.65,165.7,149.32ZM254,259.47q2.44.34,4.77.51c1.53.12,3,.17,4.46.17a36.38,36.38,0,0,0,14.07-2.44,16.78,16.78,0,0,0,10.91-15.63,31.15,31.15,0,0,0-1.56-10.36,41.15,41.15,0,0,1,3.54,14.79,18.23,18.23,0,0,1-3.12,11.18c-2.82,4-7.45,6.46-13.59,7.43s-13.79.43-22.65-1.69c-11.91-2.85-24.88-8.27-37.74-15.43A232.27,232.27,0,0,1,176,222.17a213.92,213.92,0,0,0,39.06,24.59C228.54,253.28,242,257.82,254,259.47ZM168.14,144.19c-7.94-1.1-14.74-.85-20.14.66s-9.41,4.31-11.75,8.29a17.75,17.75,0,0,0-2.33,8.44,31.41,31.41,0,0,0,1.56,10.36,41.15,41.15,0,0,1-3.54-14.79A18.29,18.29,0,0,1,135.06,146a17,17,0,0,1,7.85-5.91,32.85,32.85,0,0,1,12-2,59.15,59.15,0,0,1,7.72.54,83,83,0,0,1,8.63,1.63c11.91,2.84,24.88,8.26,37.74,15.42a232.35,232.35,0,0,1,37.1,25.83,213.4,213.4,0,0,0-39.07-24.58C193.59,150.39,180.12,145.84,168.14,144.19Zm82.48,120.09a84.32,84.32,0,0,0,8.71,1.63,59,59,0,0,0,7.81.55,33.59,33.59,0,0,0,12.47-2.09,17.07,17.07,0,0,0,11.2-14,28.39,28.39,0,0,0-.44-9.74,38.81,38.81,0,0,1,2,14.32,18.11,18.11,0,0,1-4,10.5c-3.47,4.1-8.92,6.36-16,6.76s-15.79-1.08-25.79-4.43c-12.9-4.33-26.62-11.4-40-20.2A250.68,250.68,0,0,1,168.85,217a234.37,234.37,0,0,0,40.08,29.64C223.07,254.89,237.48,261.14,250.62,264.28ZM171.5,139.38c-9-2.16-16.87-2.7-23.16-1.67s-11.06,3.63-14,7.76a17.58,17.58,0,0,0-3,7.79,28.39,28.39,0,0,0,.44,9.74,38.81,38.81,0,0,1-2-14.32,18.18,18.18,0,0,1,4-10.5,17.71,17.71,0,0,1,7.52-5.11,31,31,0,0,1,10.79-1.71A58.42,58.42,0,0,1,163,132.48a97.3,97.3,0,0,1,12.6,3.37c12.9,4.33,26.62,11.4,40,20.2a250.62,250.62,0,0,1,37.72,30.6A234.31,234.31,0,0,0,213.19,157C199.05,148.77,184.64,142.52,171.5,139.38Zm74.76,129.26A97.1,97.1,0,0,0,259,272a58.94,58.94,0,0,0,11,1.14,31.92,31.92,0,0,0,11.17-1.79A18.52,18.52,0,0,0,289,266a17.62,17.62,0,0,0,3.68-7.49,27.94,27.94,0,0,0,.39-9.64,37.81,37.81,0,0,1,.73,14.33,18.36,18.36,0,0,1-5,10.15c-4.17,4.16-10.59,6.08-18.71,5.77s-17.93-2.81-28.9-7.53c-13.88-6-28.34-14.88-42.09-25.5a264.67,264.67,0,0,1-37.93-35.79,250,250,0,0,0,40.69,35.15C216.6,255.66,231.94,263.83,246.26,268.64ZM175.86,135c-10.18-3.41-19.06-4.89-26.3-4.45s-12.84,2.8-16.44,7.05a17.74,17.74,0,0,0-3.68,7.49,28,28,0,0,0-.38,9.64,37.83,37.83,0,0,1-.74-14.33,17.54,17.54,0,0,1,12.22-14.51,31,31,0,0,1,9.84-1.45,59.27,59.27,0,0,1,14,1.9,106.62,106.62,0,0,1,16.5,5.67c13.89,6,28.34,14.87,42.1,25.5a264.57,264.57,0,0,1,37.92,35.79,249.9,249.9,0,0,0-40.68-35.15C205.52,148,190.18,139.83,175.86,135Zm65,137.42a107.72,107.72,0,0,0,16.65,5.71,60.16,60.16,0,0,0,14.22,1.9,32,32,0,0,0,10.18-1.5,19.18,19.18,0,0,0,7.51-4.54,18.06,18.06,0,0,0,4.34-7.09,27.41,27.41,0,0,0,1.28-9.39,36.45,36.45,0,0,1-.66,14.14,18.94,18.94,0,0,1-6,9.7c-5,4.22-12.41,5.72-21.55,4.6s-20-4.88-32-11.19c-14.76-7.76-29.76-18.6-43.7-31.08a272,272,0,0,1-37.37-41,260.24,260.24,0,0,0,40.52,40.71C209.36,255.59,225.46,265.81,240.87,272.44ZM181.25,131.22c-11.13-4.78-21.12-7.32-29.41-7.59s-14.85,1.73-19.15,6a17.92,17.92,0,0,0-4.33,7.09,27.41,27.41,0,0,0-1.29,9.39,36.25,36.25,0,0,1,.67-14.14,18.9,18.9,0,0,1,6-9.7,20,20,0,0,1,7-3.73,30.52,30.52,0,0,1,9-1.23,59.27,59.27,0,0,1,17.16,2.91,120.61,120.61,0,0,1,20.48,8.64c14.76,7.76,29.76,18.6,43.71,31.09a272.39,272.39,0,0,1,37.36,41,260.24,260.24,0,0,0-40.52-40.71C212.76,148.07,196.66,137.85,181.25,131.22Zm45.63,146.64a134,134,0,0,0,24.59,12.33c7.6,2.76,14.53,4.16,20.6,4.16a31.84,31.84,0,0,0,8.45-1.07,22.56,22.56,0,0,0,7-3.23,20.23,20.23,0,0,0,5.65-6,25.67,25.67,0,0,0,3.19-8.29,33.19,33.19,0,0,1-3.74,13,21.37,21.37,0,0,1-8.19,8.38c-7,4-16.64,4.27-27.91,1.06s-24.17-9.87-37.71-19.71c-16.07-11.69-31.51-26.65-45-43a265.66,265.66,0,0,1-33.58-51.13c9.36,17.41,22.44,35.4,37.48,51.73S209.68,267.13,226.88,277.86ZM195.24,125.8c-13.11-8.18-25.19-13.38-35.53-15.45s-18.93-1-25.07,3.26a20.18,20.18,0,0,0-5.64,6,25.46,25.46,0,0,0-3.2,8.29,33.19,33.19,0,0,1,3.74-13,21.43,21.43,0,0,1,8.19-8.38A23.27,23.27,0,0,1,144,104a31.9,31.9,0,0,1,7.35-.81c7,0,15,1.9,23.83,5.59a142.69,142.69,0,0,1,28.13,16.32c16.07,11.69,31.51,26.65,45,43A266,266,0,0,1,282,219.24c-9.37-17.42-22.45-35.41-37.49-51.74S212.44,136.52,195.24,125.8Zm23,153.43a142.76,142.76,0,0,0,28.38,16.45c8.88,3.71,17.05,5.62,24.12,5.62a32.64,32.64,0,0,0,7.57-.84,24,24,0,0,0,6.5-2.52,21.71,21.71,0,0,0,6.34-5.45,26.07,26.07,0,0,0,4.16-7.76,33,33,0,0,1-5.41,12.45,23.68,23.68,0,0,1-9.45,7.64c-8.26,3.7-19.06,3.13-31.3-1.32s-26-12.79-40-24.62a262.11,262.11,0,0,1-44.57-49.16c-12.87-18.22-23.33-37.57-30.18-55.87,7.8,18.69,19.85,38.55,34.41,57S200.41,266.26,218.26,279.23Zm-14.4-154.8c-13.68-10-26.74-16.68-38.17-19.89s-21.23-2.91-28.39,1.18a21.89,21.89,0,0,0-6.35,5.45,26.07,26.07,0,0,0-4.16,7.76,33,33,0,0,1,5.41-12.44,23.7,23.7,0,0,1,9.45-7.65A26.67,26.67,0,0,1,147.49,97,33.38,33.38,0,0,1,154,96.4c8,0,17.28,2.49,27.28,7.28S202,115.57,213,124.78a262.5,262.5,0,0,1,44.58,49.16c12.86,18.22,23.32,37.57,30.17,55.87-7.8-18.69-19.85-38.55-34.41-57S221.71,137.41,203.86,124.43Zm4.71,155.12c11,9.28,21.87,16.42,32,21.25s19.48,7.32,27.62,7.32a34.35,34.35,0,0,0,6.68-.62,27.51,27.51,0,0,0,6-1.88,24.57,24.57,0,0,0,7.06-4.78,27.33,27.33,0,0,0,5.17-7.09,33.58,33.58,0,0,1-7.23,11.65A26.73,26.73,0,0,1,275,312.11c-9.64,3.17-21.62,1.58-34.77-4.27s-27.46-15.95-41.77-29.78a265.05,265.05,0,0,1-43.17-55.35c-11.83-20.06-20.74-40.93-25.61-60.16,5.84,19.73,16.44,41.31,30.14,61.79S190.31,264.21,208.57,279.55Zm5-155.44c-14.2-11.94-28.06-20.34-40.47-24.82s-23.37-5-31.79-1.25a24.53,24.53,0,0,0-7,4.78,27.1,27.1,0,0,0-5.17,7.09,33.28,33.28,0,0,1,7.23-11.65,26.63,26.63,0,0,1,10.83-6.71,30.09,30.09,0,0,1,5.1-1.2,36,36,0,0,1,5.46-.4c9.22,0,19.77,3.17,31,9.21s23.1,15,35,26.44A265.43,265.43,0,0,1,266.85,181c11.83,20.06,20.73,40.93,25.6,60.17-5.84-19.74-16.44-41.32-30.14-61.8S231.81,139.45,213.55,124.11ZM197.84,278.68c12,11.57,24,20.55,35.29,26.63s22,9.27,31.33,9.27a36.41,36.41,0,0,0,5.59-.41,31.76,31.76,0,0,0,5.22-1.23,27.73,27.73,0,0,0,7.86-4,28.73,28.73,0,0,0,6.24-6.35,35,35,0,0,1-9.24,10.73,30.94,30.94,0,0,1-12.45,5.6c-11.14,2.33-24.27-.52-38.16-7.89S201,291.71,186.78,275.93a261.09,261.09,0,0,1-40.69-61.37c-10.39-21.77-17.31-43.94-19.81-63.83,3.47,20.49,12.17,43.6,24.59,66S179.45,260.92,197.84,278.68ZM224.28,125c-14.43-14-28.89-24.13-42.18-30s-25.44-7.47-35.24-4.25a27.65,27.65,0,0,0-7.87,4,29,29,0,0,0-6.24,6.35A35,35,0,0,1,142,90.38a31.14,31.14,0,0,1,12.45-5.6,38,38,0,0,1,3.89-.6c1.33-.13,2.68-.19,4-.19,10.62,0,22.58,3.94,35,11.39s25.38,18.37,37.95,32.35A261.35,261.35,0,0,1,276,189.1c10.4,21.77,17.31,43.94,19.81,63.83-3.47-20.49-12.17-43.6-24.59-66S242.67,142.74,224.28,125Zm-99.84,13.66c.69,20.89,7,45.25,17.73,69.44a262.92,262.92,0,0,0,44,68.44c12.65,14.07,25.68,25.08,38.24,32.56s24.65,11.47,35.4,11.47a39.87,39.87,0,0,0,4.12-.21,36.86,36.86,0,0,0,4-.6,32.5,32.5,0,0,0,8.84-3.22,31.81,31.81,0,0,0,7.44-5.57,38.17,38.17,0,0,1-11.55,9.69,37.08,37.08,0,0,1-14.4,4.22c-12.67,1.12-26.85-3.22-41.28-12.23S187.82,290,174.19,272.4a251.76,251.76,0,0,1-37-67.1C128.65,182,124.17,158.83,124.44,138.64ZM297.68,265c-.69-20.89-7-45.25-17.72-69.44a263,263,0,0,0-44-68.44c-14.3-15.89-29.08-27.88-43.12-35.31s-27.33-10.27-38.62-7.9a32.27,32.27,0,0,0-8.84,3.21A31.58,31.58,0,0,0,138,92.72,38.07,38.07,0,0,1,149.53,83a37.13,37.13,0,0,1,14.4-4.22c.66-.06,1.32-.1,2-.13s1.33,0,2,0c12.3,0,25.84,4.84,39.54,13.84s27.55,22.16,40.48,38.8a251.86,251.86,0,0,1,37,67.09C293.47,221.63,298,244.83,297.68,265ZM173.5,272.94c13,16.75,27,30,40.79,39.05s27.5,13.92,39.93,13.92c.68,0,1.36,0,2,0s1.34-.08,2-.13a38.86,38.86,0,0,0,10.11-2.25,36.69,36.69,0,0,0,8.88-4.75,43.32,43.32,0,0,1-14.3,8.48,45.48,45.48,0,0,1-16.83,2.46c-14.1-.49-29.13-6.57-43.78-17.27s-28.94-26-41.56-45a238,238,0,0,1-32-72.22c-6.21-24.49-7.82-48.35-4.44-68.43-2.44,20.88,1.06,46.12,9.57,71.81A252.69,252.69,0,0,0,173.5,272.94Zm75.12-142.22c-13.72-17.66-28.51-31.43-43.07-40.5s-28.88-13.43-41.7-12.3a38.86,38.86,0,0,0-10.11,2.25,36.38,36.38,0,0,0-8.88,4.76,43.42,43.42,0,0,1,13.52-8.2A44.83,44.83,0,0,1,174.2,74h.89l.9,0c14.11.49,29.13,6.57,43.79,17.27s28.94,26,41.55,45.05a237.85,237.85,0,0,1,32,72.21c6.21,24.49,7.82,48.35,4.44,68.43,2.45-20.88-1.06-46.12-9.57-71.81A252.69,252.69,0,0,0,248.62,130.72ZM160.06,267.85c12.7,19.13,27.09,34.56,41.86,45.33s29.94,16.88,44.18,17.38l.92,0h.91a46.85,46.85,0,0,0,10.7-1.2,42.82,42.82,0,0,0,9.78-3.55,50.76,50.76,0,0,1-17.59,6.87,56.83,56.83,0,0,1-19.7.09c-15.28-2.49-30.81-10.48-45.31-22.85s-28-29.15-39.11-49.22A220.68,220.68,0,0,1,121,184.19c-3.44-25.35-1.78-49.44,5-69-5.89,20.43-5.64,46.15.2,73A237.85,237.85,0,0,0,160.06,267.85Zm102-132C249.37,116.68,235,101.25,220.2,90.49S190.27,73.61,176,73.11a47.58,47.58,0,0,0-11.85,1A43.44,43.44,0,0,0,153.41,78,50.85,50.85,0,0,1,166.64,72a53.18,53.18,0,0,1,14.57-2c1.6,0,3.21.07,4.85.21s3.28.33,4.94.61c15.28,2.49,30.82,10.48,45.32,22.85s28,29.15,39.11,49.22a220.65,220.65,0,0,1,25.65,76.54c3.44,25.35,1.78,49.45-5,69,5.89-20.43,5.65-46.15-.2-73A237.65,237.65,0,0,0,262.06,135.81ZM145.93,261.16c11.21,20.18,24.77,37,39.37,49.5s30.26,20.49,45.68,23c1.69.27,3.36.48,5,.62s3.3.2,4.93.2a54.53,54.53,0,0,0,8.63-.67,53,53,0,0,0,8.24-2,61.38,61.38,0,0,1-21.67,4.82,71.18,71.18,0,0,1-23.22-3.08c-16-4.77-31.61-14.74-45.49-28.67s-26.09-31.83-35.37-52.45a201.35,201.35,0,0,1-17.93-79.89c-.26-25.81,5.07-49.67,15.52-68.21-9.58,19.51-13,45.23-10.29,72.81A220,220,0,0,0,145.93,261.16ZM276.19,142.5c-11.21-20.18-24.77-37-39.37-49.5s-30.26-20.49-45.68-23a59.27,59.27,0,0,0-13.92-.67,52.3,52.3,0,0,0-13,2.57,62.17,62.17,0,0,1,11.86-3.69A62.84,62.84,0,0,1,188.53,67a67.29,67.29,0,0,1,10.23.79,76,76,0,0,1,10.45,2.35c16,4.77,31.61,14.74,45.49,28.67s26.09,31.83,35.37,52.45A201.35,201.35,0,0,1,308,231.11c.26,25.81-5.06,49.67-15.52,68.21,9.59-19.52,13-45.23,10.29-72.81A220,220,0,0,0,276.19,142.5ZM131.25,252.8c9.34,20.74,21.61,38.73,35.59,52.75s29.67,24,45.82,28.85a77.74,77.74,0,0,0,10.57,2.38,69.11,69.11,0,0,0,10.37.79c1.93,0,3.86-.08,5.76-.25s3.79-.43,5.66-.77a75.45,75.45,0,0,1-26.44,2,88.49,88.49,0,0,1-27.11-7.31c-16.19-7.15-31.24-19-44-34.28A172.91,172.91,0,0,1,117,242.42c-9.57-27.77-12.21-56.23-8.88-82s12.62-48.91,26.91-66c-13.47,18.14-20.9,43.33-21.72,71.19S118.29,224,131.25,252.8ZM290.87,150.86c-9.33-20.74-21.61-38.73-35.59-52.75s-29.66-24-45.82-28.85a75.13,75.13,0,0,0-16.47-3,65.15,65.15,0,0,0-15.84.87,75.06,75.06,0,0,1,18.73-2.38,80.44,80.44,0,0,1,17.32,1.93,92.85,92.85,0,0,1,17.45,5.77c16.19,7.15,31.24,19,44,34.28a173.09,173.09,0,0,1,30.42,54.54c9.57,27.77,12.21,56.23,8.88,82s-12.62,48.91-26.91,66c13.47-18.14,20.9-43.33,21.72-71.19S303.84,179.67,290.87,150.86ZM116.2,242.7a173.63,173.63,0,0,0,30.6,54.85c12.87,15.34,28,27.29,44.32,34.49a93.72,93.72,0,0,0,17.62,5.83,81.46,81.46,0,0,0,17.5,1.94l1.7,0,1.7-.06a95.39,95.39,0,0,1-31.75-2,107.09,107.09,0,0,1-30.78-12.58,134,134,0,0,1-40.94-39.05,163.93,163.93,0,0,1-24.36-55.47C95,201.78,96,173.06,103.24,147.77s20.8-47.14,39.07-62.28c-17.49,16.29-29.25,40.43-34,68.08S105.75,212.38,116.2,242.7ZM305.93,161a173.66,173.66,0,0,0-30.61-54.85c-12.86-15.34-28-27.29-44.32-34.49a92.86,92.86,0,0,0-19.29-6.17,80.07,80.07,0,0,0-19.11-1.53c1.63-.17,3.26-.3,4.9-.39s3.28-.14,4.92-.14a97.08,97.08,0,0,1,26.75,3.81A108.29,108.29,0,0,1,255,78.5,134.11,134.11,0,0,1,296,117.55,163.92,163.92,0,0,1,320.31,173c6.83,28.87,5.84,57.58-1.42,82.86S298.08,303,279.81,318.17c17.5-16.29,29.25-40.43,34-68.08S316.38,191.28,305.93,161ZM101,230.84a165.06,165.06,0,0,0,24.51,55.79,134.93,134.93,0,0,0,41.21,39.28,109.33,109.33,0,0,0,23.56,10.64A99,99,0,0,0,214.65,341H214a115.06,115.06,0,0,1-41.52-7.79,126.51,126.51,0,0,1-37.42-22.76,140.8,140.8,0,0,1-32.56-41.53,152.73,152.73,0,0,1-15.92-51.81,149.43,149.43,0,0,1,12.91-82.29C111,110.56,129.05,90.5,151.37,77.75c-21.61,14-37.93,36.53-47,63.44S93.52,199.39,101,230.84Zm220.22-58A164.87,164.87,0,0,0,296.66,117a134.9,134.9,0,0,0-41.2-39.28A109.24,109.24,0,0,0,232,67.14a99.45,99.45,0,0,0-24.33-4.48h.43a115.05,115.05,0,0,1,41.51,7.79A126.56,126.56,0,0,1,287,93.21a141.06,141.06,0,0,1,32.55,41.53,154.86,154.86,0,0,1,13,105.94,141.07,141.07,0,0,1-21.54,48.17,129.81,129.81,0,0,1-18.83,21.5,119.42,119.42,0,0,1-22.35,16.14c21.9-13.85,38.47-36.43,47.69-63.47S328.66,204.49,321.17,172.82Zm-249.46,29a138.56,138.56,0,0,1,25.47-80.22,140.13,140.13,0,0,1,65.1-50.32C136.5,82.5,115.4,102.9,101.72,128.53a149.67,149.67,0,0,0-16,88.69,153.66,153.66,0,0,0,16,52.12,142,142,0,0,0,32.75,41.77,129.44,129.44,0,0,0,28.53,18.94,118.35,118.35,0,0,0,31.37,10.14A139.55,139.55,0,0,1,71.71,201.83ZM260.79,332a118.2,118.2,0,0,0,27.92-17.41,129.66,129.66,0,0,0,23.05-25.24,141.93,141.93,0,0,0,21.68-48.46,155.71,155.71,0,0,0-13.09-106.56A141.71,141.71,0,0,0,287.6,92.55a129.39,129.39,0,0,0-28.51-18.93,118.52,118.52,0,0,0-31.34-10.14,139.37,139.37,0,0,1,33,268.52Z"/></svg>