<?xml version="1.0" encoding="utf-8"?>
<!-- Generator: Adobe Illustrator 25.3.1, SVG Export Plug-In . SVG Version: 6.00 Build 0)  -->
<svg version="1.1" id="Layer_1" xmlns="http://www.w3.org/2000/svg" xmlns:xlink="http://www.w3.org/1999/xlink" x="0px" y="0px"
	 viewBox="0 0 512 512" style="enable-background:new 0 0 512 512;" xml:space="preserve">
<style type="text/css">
	.st0{fill:url(#SVGID_1_);}
	.st1{opacity:0.4;fill:url(#SVGID_2_);enable-background:new    ;}
	.st2{fill:url(#SVGID_3_);}
	.st3{fill:url(#SVGID_4_);}
	.st4{opacity:0.75;fill:url(#SVGID_5_);enable-background:new    ;}
	.st5{fill:url(#SVGID_6_);}
	.st6{fill:url(#SVGID_7_);}
	.st7{fill:url(#SVGID_8_);}
	.st8{fill:url(#SVGID_9_);}
	.st9{fill:url(#SVGID_10_);}
	.st10{fill:url(#SVGID_11_);}
	.st11{opacity:0.5;}
	.st12{opacity:0.9;}
	.st13{fill:#FDF193;}
</style>
<g id="Layer_1_1_">
</g>
<g id="Layer_2_1_">
	<g>
		
			<radialGradient id="SVGID_1_" cx="412.669" cy="673.8826" r="74.41" gradientTransform="matrix(0.6295 0 0 0.6119 16.9655 -134.426)" gradientUnits="userSpaceOnUse">
			<stop  offset="0" style="stop-color:#FFFFFF"/>
			<stop  offset="5.210000e-02" style="stop-color:#E1E1E1"/>
			<stop  offset="0.1544" style="stop-color:#ADADAD"/>
			<stop  offset="0.2611" style="stop-color:#7F7F7F"/>
			<stop  offset="0.3699" style="stop-color:#585858"/>
			<stop  offset="0.4816" style="stop-color:#383838"/>
			<stop  offset="0.5969" style="stop-color:#1F1F1F"/>
			<stop  offset="0.7175" style="stop-color:#0E0E0E"/>
			<stop  offset="0.8468" style="stop-color:#030303"/>
			<stop  offset="1" style="stop-color:#000000"/>
		</radialGradient>
		<path class="st0" d="M323.5,274.8c1.8,27.5-21.5,50.1-49.8,48.5c-23.4-1.4-42.2-19.9-43.7-42.5c-1.8-27.5,21.5-50.1,49.8-48.4
			C303.1,233.9,322,252.2,323.5,274.8z"/>
		<g>
			
				<radialGradient id="SVGID_2_" cx="-79.768" cy="6231.3384" r="686.606" gradientTransform="matrix(-0.3045 0.1363 2.010000e-02 4.240000e-02 128.8817 28.207)" gradientUnits="userSpaceOnUse">
				<stop  offset="0" style="stop-color:#FFC107"/>
				<stop  offset="2.610862e-03" style="stop-color:#FEC007"/>
				<stop  offset="0.1239" style="stop-color:#C39405"/>
				<stop  offset="0.2478" style="stop-color:#8F6C04"/>
				<stop  offset="0.3721" style="stop-color:#634B03"/>
				<stop  offset="0.4966" style="stop-color:#3F3002"/>
				<stop  offset="0.6213" style="stop-color:#241B01"/>
				<stop  offset="0.7463" style="stop-color:#100C00"/>
				<stop  offset="0.8722" style="stop-color:#040300"/>
				<stop  offset="1" style="stop-color:#000000"/>
			</radialGradient>
			<path class="st1" d="M112.2,351.5c9.6,20.2,91,3.6,181.9-37s156.7-90.1,147.1-110.4c-9.6-20.2-91-3.6-181.9,37
				C168.4,281.8,102.7,331.3,112.2,351.5z"/>
		</g>
	</g>
	<g>
		
			<radialGradient id="SVGID_3_" cx="-2714.2397" cy="-1255.3177" r="75.3526" gradientTransform="matrix(0.9974 -7.220000e-02 -7.220000e-02 -0.9974 2784.1956 -1298.1021)" gradientUnits="userSpaceOnUse">
			<stop  offset="0" style="stop-color:#E0342E"/>
			<stop  offset="7.914821e-03" style="stop-color:#D8322C"/>
			<stop  offset="6.050000e-02" style="stop-color:#A62722"/>
			<stop  offset="0.1157" style="stop-color:#791D19"/>
			<stop  offset="0.1726" style="stop-color:#541411"/>
			<stop  offset="0.2314" style="stop-color:#350D0B"/>
			<stop  offset="0.293" style="stop-color:#1E0806"/>
			<stop  offset="0.3584" style="stop-color:#0D0403"/>
			<stop  offset="0.4303" style="stop-color:#030201"/>
			<stop  offset="0.5212" style="stop-color:#000100"/>
		</radialGradient>
		<path class="st2" d="M242.8,144.5c-3-41.5-39.1-72.6-80.6-69.8c-41.5,3-72.8,39.1-69.8,80.6c3,41.5,39.1,72.8,80.6,69.8
			C214.7,222.2,245.8,186,242.8,144.5z"/>
		
			<radialGradient id="SVGID_4_" cx="-2714.2397" cy="-1255.3177" r="75.3526" gradientTransform="matrix(0.9974 -7.220000e-02 -7.220000e-02 -0.9974 2784.1956 -1298.1021)" gradientUnits="userSpaceOnUse">
			<stop  offset="0" style="stop-color:#E0342E"/>
			<stop  offset="7.914821e-03" style="stop-color:#D8322C"/>
			<stop  offset="6.050000e-02" style="stop-color:#A62722"/>
			<stop  offset="0.1157" style="stop-color:#791D19"/>
			<stop  offset="0.1726" style="stop-color:#541411"/>
			<stop  offset="0.2314" style="stop-color:#350D0B"/>
			<stop  offset="0.293" style="stop-color:#1E0806"/>
			<stop  offset="0.3584" style="stop-color:#0D0403"/>
			<stop  offset="0.4303" style="stop-color:#030201"/>
			<stop  offset="0.5212" style="stop-color:#000100"/>
		</radialGradient>
		<path class="st3" d="M242.8,144.5c-3-41.5-39.1-72.6-80.6-69.8c-41.5,3-72.8,39.1-69.8,80.6c3,41.5,39.1,72.8,80.6,69.8
			C214.7,222.2,245.8,186,242.8,144.5z"/>
		
			<radialGradient id="SVGID_5_" cx="-350.0122" cy="-638.8332" r="46.6224" gradientTransform="matrix(0.8289 0.8224 2.1743 -2.1912 1846.8495 -962.0414)" gradientUnits="userSpaceOnUse">
			<stop  offset="0" style="stop-color:#FFEC87;stop-opacity:0.99"/>
			<stop  offset="8.480000e-02" style="stop-color:#FFEC87"/>
			<stop  offset="0.1369" style="stop-color:#C6B769"/>
			<stop  offset="0.1914" style="stop-color:#92884D"/>
			<stop  offset="0.2468" style="stop-color:#655E36"/>
			<stop  offset="0.3021" style="stop-color:#413D22"/>
			<stop  offset="0.3572" style="stop-color:#242313"/>
			<stop  offset="0.4122" style="stop-color:#101009"/>
			<stop  offset="0.4669" style="stop-color:#040502"/>
			<stop  offset="0.5212" style="stop-color:#000100"/>
		</radialGradient>
		<path class="st4" d="M206.4,188.3c55.9-56.4,84.1-119.3,62.7-140.5s-84,7.4-140,63.8S45,231,66.3,252.1
			C87.6,273.3,150.3,244.7,206.4,188.3z"/>
		
			<radialGradient id="SVGID_6_" cx="-2714.2397" cy="-1255.3176" r="54.56" gradientTransform="matrix(0.9974 -7.220000e-02 -7.220000e-02 -0.9974 2784.1956 -1298.1021)" gradientUnits="userSpaceOnUse">
			<stop  offset="0" style="stop-color:#FFFFFF"/>
			<stop  offset="3.440000e-02" style="stop-color:#D8D8D8"/>
			<stop  offset="8.430000e-02" style="stop-color:#A6A6A6"/>
			<stop  offset="0.1366" style="stop-color:#797A79"/>
			<stop  offset="0.1905" style="stop-color:#545554"/>
			<stop  offset="0.2464" style="stop-color:#353635"/>
			<stop  offset="0.3048" style="stop-color:#1E1F1E"/>
			<stop  offset="0.3668" style="stop-color:#0D0E0D"/>
			<stop  offset="0.435" style="stop-color:#030403"/>
			<stop  offset="0.5212" style="stop-color:#000100"/>
		</radialGradient>
		<path class="st5" d="M222.1,146c-2.1-30-28.3-52.7-58.3-50.5s-52.7,28.3-50.5,58.3s28.3,52.7,58.3,50.5
			C201.6,202.2,224.2,176.1,222.1,146z"/>
	</g>
	<g>
		
			<image style="overflow:visible;opacity:0.4;enable-background:new    ;" width="415" height="415" xlink:href="B231A9CF.png"  transform="matrix(1.2568 0 0 1.2568 -5.2947 -1.7811)">
		</image>
		<g>
			<g>
				
					<linearGradient id="SVGID_7_" gradientUnits="userSpaceOnUse" x1="255.3743" y1="765.8613" x2="255.3743" y2="261.3649" gradientTransform="matrix(1 0 0 1 0 -278)">
					<stop  offset="0" style="stop-color:#C99B14"/>
					<stop  offset="0.2137" style="stop-color:#B78817"/>
					<stop  offset="0.2223" style="stop-color:#B98B1B"/>
					<stop  offset="0.3396" style="stop-color:#D6B74E"/>
					<stop  offset="0.4418" style="stop-color:#EBD774"/>
					<stop  offset="0.524" style="stop-color:#F8EA8B"/>
					<stop  offset="0.5758" style="stop-color:#FDF193"/>
					<stop  offset="0.5784" style="stop-color:#F9EB8A"/>
					<stop  offset="0.589" style="stop-color:#ECD66B"/>
					<stop  offset="0.6011" style="stop-color:#E1C34F"/>
					<stop  offset="0.6146" style="stop-color:#D8B439"/>
					<stop  offset="0.6305" style="stop-color:#D1A928"/>
					<stop  offset="0.6501" style="stop-color:#CDA11D"/>
					<stop  offset="0.6776" style="stop-color:#CA9C16"/>
					<stop  offset="0.754" style="stop-color:#C99B14"/>
					<stop  offset="0.7571" style="stop-color:#C79814"/>
					<stop  offset="0.7907" style="stop-color:#AF7E15"/>
					<stop  offset="0.8275" style="stop-color:#9E6A16"/>
					<stop  offset="0.8692" style="stop-color:#915B17"/>
					<stop  offset="0.9192" style="stop-color:#895317"/>
					<stop  offset="1" style="stop-color:#875017"/>
				</linearGradient>
				<circle class="st6" cx="255.4" cy="256.6" r="252.2"/>
				
					<linearGradient id="SVGID_8_" gradientUnits="userSpaceOnUse" x1="255.3743" y1="757.3998" x2="255.3743" y2="271.2533" gradientTransform="matrix(1 0 0 1 0 -278)">
					<stop  offset="0" style="stop-color:#875017"/>
					<stop  offset="8.080000e-02" style="stop-color:#895317"/>
					<stop  offset="0.1308" style="stop-color:#915B17"/>
					<stop  offset="0.1725" style="stop-color:#9E6A16"/>
					<stop  offset="0.2093" style="stop-color:#AF7E15"/>
					<stop  offset="0.2429" style="stop-color:#C79814"/>
					<stop  offset="0.246" style="stop-color:#C99B14"/>
					<stop  offset="0.3224" style="stop-color:#CA9C16"/>
					<stop  offset="0.3499" style="stop-color:#CDA11D"/>
					<stop  offset="0.3695" style="stop-color:#D1A928"/>
					<stop  offset="0.3854" style="stop-color:#D8B439"/>
					<stop  offset="0.3989" style="stop-color:#E1C34F"/>
					<stop  offset="0.411" style="stop-color:#ECD66B"/>
					<stop  offset="0.4216" style="stop-color:#F9EB8A"/>
					<stop  offset="0.4242" style="stop-color:#FDF193"/>
					<stop  offset="0.476" style="stop-color:#F8EA8B"/>
					<stop  offset="0.5582" style="stop-color:#EBD774"/>
					<stop  offset="0.6604" style="stop-color:#D6B74E"/>
					<stop  offset="0.7777" style="stop-color:#B98B1B"/>
					<stop  offset="0.7863" style="stop-color:#B78817"/>
					<stop  offset="1" style="stop-color:#C99B14"/>
				</linearGradient>
				<circle class="st7" cx="255.4" cy="256.6" r="243.1"/>
				<g>
					
						<linearGradient id="SVGID_9_" gradientUnits="userSpaceOnUse" x1="255.3743" y1="720.3649" x2="255.3743" y2="350.1682" gradientTransform="matrix(1 0 0 1 0 -278)">
						<stop  offset="0" style="stop-color:#C99B14"/>
						<stop  offset="3.750000e-02" style="stop-color:#CFA523"/>
						<stop  offset="0.11" style="stop-color:#E0C14C"/>
						<stop  offset="0.2095" style="stop-color:#FAEC8C"/>
						<stop  offset="0.2195" style="stop-color:#FDF193"/>
						<stop  offset="0.2511" style="stop-color:#FAEC8B"/>
						<stop  offset="0.2989" style="stop-color:#F1DE77"/>
						<stop  offset="0.357" style="stop-color:#E3C754"/>
						<stop  offset="0.4227" style="stop-color:#D0A725"/>
						<stop  offset="0.4445" style="stop-color:#C99B14"/>
						<stop  offset="0.61" style="stop-color:#EDD66C"/>
						<stop  offset="0.6933" style="stop-color:#FDF193"/>
						<stop  offset="0.9055" style="stop-color:#B78817"/>
						<stop  offset="1" style="stop-color:#C99B14"/>
					</linearGradient>
					<circle class="st8" cx="255.4" cy="256.6" r="195.3"/>
					
						<linearGradient id="SVGID_10_" gradientUnits="userSpaceOnUse" x1="4502.1416" y1="29.4552" x2="4502.1416" y2="-353.1276" gradientTransform="matrix(-1 0 0 -1 4757.5161 110.6722)">
						<stop  offset="0" style="stop-color:#875017"/>
						<stop  offset="0.1072" style="stop-color:#9D6A17"/>
						<stop  offset="0.2475" style="stop-color:#B78817"/>
						<stop  offset="0.6677" style="stop-color:#FDF193"/>
						<stop  offset="0.7431" style="stop-color:#FCEF90"/>
						<stop  offset="0.8008" style="stop-color:#F8E886"/>
						<stop  offset="0.8526" style="stop-color:#F1DD76"/>
						<stop  offset="0.9009" style="stop-color:#E8CE5F"/>
						<stop  offset="0.9469" style="stop-color:#DBB941"/>
						<stop  offset="0.9905" style="stop-color:#CDA11D"/>
						<stop  offset="1" style="stop-color:#C99B14"/>
					</linearGradient>
					<circle class="st9" cx="255.4" cy="256.6" r="191.3"/>
					
						<linearGradient id="SVGID_11_" gradientUnits="userSpaceOnUse" x1="255.3743" y1="690.7157" x2="255.3743" y2="350.1115" gradientTransform="matrix(1 0 0 1 0 -278)">
						<stop  offset="0" style="stop-color:#875017"/>
						<stop  offset="0.1072" style="stop-color:#9D6A17"/>
						<stop  offset="0.2475" style="stop-color:#B78817"/>
						<stop  offset="0.6677" style="stop-color:#FDF193"/>
						<stop  offset="0.7431" style="stop-color:#FCEF90"/>
						<stop  offset="0.8008" style="stop-color:#F8E886"/>
						<stop  offset="0.8526" style="stop-color:#F1DD76"/>
						<stop  offset="0.9009" style="stop-color:#E8CE5F"/>
						<stop  offset="0.9469" style="stop-color:#DBB941"/>
						<stop  offset="0.9905" style="stop-color:#CDA11D"/>
						<stop  offset="1" style="stop-color:#C99B14"/>
					</linearGradient>
					<circle class="st10" cx="255.4" cy="256.6" r="170.3"/>
				</g>
			</g>
		</g>
	</g>
	<g class="st11">
		
			<image style="overflow:visible;enable-background:new    ;" width="475" height="475" xlink:href="B231A9CD.png"  transform="matrix(1.2568 0 0 1.2568 -43 -42)">
		</image>
	</g>
	<g>
		<g class="st12">
			<path d="M227.5,163.6c0.6-2.4,5.2-10.7,6.5-8.7c6.2,9,10.8,25.4,16.3,34.2c0.6,0.6,0.4,3.6,0,5.5
				c-12.8,52.7-24.4,102.7-37.2,155.5c-0.1,0.3-0.8,0.8-1.4,1.4c-1.4,1-3.3,0.8-4-0.5c-6.2-9.2-11.3-16.5-17.5-26.3
				c-0.6-1.1-0.8-4.3-0.4-6L227.5,163.6z"/>
			<path d="M164.6,322.7c2.8-10.9,5.3-21.2,8-31.5c0.3-1,1.6-1.9,2.5-1.9c4.7-0.1,9.2,0,13.8,0c30,0,60.1,0,90.1,0
				c2.4,0,3.5-1,4.1-4.1c5-20.1,10.2-40.1,15.3-60.2c0.3-1.1,0.4-2,0.9-3.8c-36.4,0-72.6,0-109.2,0c2.8-11.2,5.4-21.5,8.3-31.9
				c0.3-0.8,1.4-1.5,2.1-1.5c2.8-0.1,5.4,0,8.3,0c37,0,73.9,0.4,111.1-0.1c11.1-0.1,22.7,11.3,18,33.3c-3.5,16.5-8,32.3-12.2,48.4
				c-1.4,5.5-2.8,11.2-4.1,16.5c-5.2,19.4-15.6,30.8-30,36.3c-1.3,0.6-2.6,0.6-4,0.6c-40,0-79.9,0-119.9,0
				C166.9,322.7,165.9,322.7,164.6,322.7z"/>
		</g>
		<g>
			<path class="st13" d="M227.5,165c0.6-2.4,5.2-10.7,6.5-8.7c6.2,9,10.8,25.4,16.3,34.2c0.6,0.6,0.4,3.6,0,5.5
				c-12.8,52.7-24.4,102.7-37.2,155.5c-0.1,0.3-0.8,0.8-1.4,1.4c-1.4,1-3.3,0.8-4-0.5c-6.2-9.2-11.3-16.5-17.5-26.3
				c-0.6-1.1-0.8-4.3-0.4-6L227.5,165z"/>
			<path class="st13" d="M164.6,324.1c2.8-10.9,5.3-21.2,8-31.5c0.3-1,1.6-1.9,2.5-1.9c4.7-0.1,9.2,0,13.8,0c30,0,60.1,0,90.1,0
				c2.4,0,3.5-1,4.1-4.1c5-20.1,10.2-40.1,15.3-60.2c0.3-1.1,0.4-2,0.9-3.8c-36.4,0-72.6,0-109.2,0c2.8-11.2,5.4-21.5,8.3-31.9
				c0.3-0.8,1.4-1.5,2.1-1.5c2.8-0.1,5.4,0,8.3,0c37,0,73.9,0.4,111.1-0.1c11.1-0.1,22.7,11.3,18,33.3c-3.5,16.5-8,32.3-12.2,48.4
				c-1.4,5.5-2.8,11.2-4.1,16.5c-5.2,19.4-15.6,30.8-30,36.3c-1.3,0.6-2.6,0.6-4,0.6c-40,0-79.9,0-119.9,0
				C166.9,324.1,165.9,324.1,164.6,324.1z"/>
		</g>
	</g>
</g>
</svg>
