<?xml version="1.0" encoding="utf-8"?>
<!-- Generator: Adobe Illustrator 25.4.1, SVG Export Plug-In . SVG Version: 6.00 Build 0)  -->
<svg version="1.1" id="Шар_1" xmlns="http://www.w3.org/2000/svg" xmlns:xlink="http://www.w3.org/1999/xlink" x="0px"
     y="0px"
     viewBox="0 0 423 423" style="enable-background:new 0 0 423 409;" xml:space="preserve">
<style type="text/css">
	.st0{fill:url(#SVGID_1_);}
	.st1{fill:url(#SVGID_00000012463303273774014980000006824964615976729765_);}
	.st2{fill:#FFFFFF;}
	.st3{fill:url(#SVGID_00000114785644814267162250000009257983977977610371_);}
	.st4{fill:url(#SVGID_00000134946618219120933380000001636651905098827967_);}
	.st5{fill:url(#SVGID_00000173146946037004580930000013847330759847229869_);}
	.st6{fill:url(#SVGID_00000045587438598016474650000015966768994558196903_);}
	.st7{fill:url(#SVGID_00000072239180081664380170000012868227576036192675_);}
	.st8{fill:url(#SVGID_00000170979213222150321770000002117386796795327913_);}
	.st9{fill:url(#SVGID_00000041989704362240065930000013813368980409172872_);}
	.st10{fill:url(#SVGID_00000003827551621985554170000006743093508136191671_);}
	.st11{fill:url(#SVGID_00000114057856595336165780000005336917068672250014_);}
	.st12{fill:url(#SVGID_00000082370072769958559910000004913571988899131042_);}
	.st13{fill:url(#SVGID_00000108298319652769594010000018006616374841985190_);}
	.st14{fill:url(#SVGID_00000138555950492204990320000000645325473235546779_);}
</style>
    <g>
	<radialGradient id="SVGID_1_" cx="211.0602" cy="201.83" r="140.2278" gradientUnits="userSpaceOnUse">
		<stop offset="8.695520e-04" style="stop-color:#7255BB"/>
        <stop offset="0.3504" style="stop-color:#9555FB"/>
        <stop offset="0.6643" style="stop-color:#5563FB"/>
        <stop offset="1" style="stop-color:#5595FB"/>
	</radialGradient>
        <path class="st0" d="M211.06,61.6c-38.66,0-73.72,15.73-99.11,41.12c-25.39,25.39-41.12,60.45-41.12,99.11s15.73,73.72,41.12,99.11
		c25.39,25.39,60.45,41.12,99.11,41.12s73.72-15.73,99.11-41.12c25.39-25.39,41.12-60.45,41.12-99.11s-15.73-73.72-41.12-99.11
		C284.78,77.33,249.72,61.6,211.06,61.6z M135.14,114.33c1.99-1.39,4.24-2.43,6.74-3.12c2.5-0.69,5.24-1.03,8.2-1.03
		c5.96,0,12.81,1.39,20.33,4.14c7.52,2.74,15.71,6.83,24.37,12.24c15.5,9.66,30.83,22.52,44.71,36.91
		c13.87,14.39,26.29,30.32,35.94,46.12c-10.53-15.97-24.28-32.04-39.48-46.26c-15.21-14.22-31.87-26.61-48.25-35.21
		c-12.18-6.4-23.24-10.19-32.54-11.29c-9.31-1.11-16.86,0.47-22.01,4.8c-2.17,1.83-3.86,4.12-5.07,6.82
		c-1.2,2.7-1.93,5.82-2.17,9.31c-0.19-5.44,0.49-10.15,2.03-14.08C129.49,119.74,131.89,116.6,135.14,114.33z M286.98,289.33
		c-5.99,4.2-14.42,5.18-24.59,3.1c-10.17-2.08-22.09-7.23-35.04-15.31c-15.5-9.66-30.83-22.52-44.71-36.92
		c-13.88-14.39-26.29-30.32-35.95-46.12c10.53,15.97,24.28,32.04,39.48,46.26c15.21,14.22,31.87,26.61,48.24,35.21
		c7.34,3.86,14.28,6.77,20.67,8.71c6.39,1.95,12.23,2.92,17.39,2.92c3.4,0,6.5-0.42,9.26-1.28c2.76-0.86,5.19-2.14,7.24-3.86
		c2.17-1.83,3.86-4.12,5.07-6.82c1.21-2.71,1.93-5.82,2.17-9.31c0.19,5.44-0.49,10.15-2.03,14.08
		C292.63,283.92,290.23,287.06,286.98,289.33z M163.59,161.04c7.61-1.71,16.73-1.63,26.48-0.06c9.75,1.57,20.13,4.62,30.24,8.87
		c-10.36-3.8-20.99-6.22-30.83-6.99c-9.84-0.77-18.89,0.1-26.09,2.86c-4.24,1.63-7.61,3.81-10.05,6.47
		c-2.44,2.66-3.94,5.8-4.43,9.35c-0.39,2.77-0.13,5.71,0.72,8.75c0.85,3.03,2.3,6.16,4.3,9.31c-3.41-4.46-5.83-8.86-7.19-13.02
		s-1.64-8.08-0.76-11.58c0.87-3.47,2.83-6.41,5.8-8.77C154.74,163.89,158.71,162.14,163.59,161.04z M244.93,183.1
		c0.14,0.09,0.28,0.18,0.42,0.27c0.14,0.09,0.28,0.18,0.42,0.28c0.04,0.03,0.08,0.06,0.12,0.08c0.04,0.03,0.08,0.06,0.12,0.08
		c7.09,4.81,12.7,10.15,16.51,15.58c3.81,5.43,5.81,10.96,5.69,16.13c-0.08,3.32-1.04,6.38-2.81,9.09s-4.38,5.09-7.76,7.05
		c-9.13,5.29-22.58,6.76-36.94,4.87c-14.36-1.89-29.65-7.15-42.47-15.32c-0.17-0.11-0.35-0.22-0.51-0.33
		c-0.17-0.11-0.34-0.22-0.51-0.33c-0.14-0.09-0.28-0.18-0.42-0.27c-0.14-0.09-0.28-0.18-0.42-0.28c-0.04-0.03-0.08-0.05-0.12-0.08
		c-0.04-0.03-0.08-0.06-0.12-0.08c-7.09-4.8-12.7-10.15-16.51-15.58c-3.81-5.43-5.81-10.96-5.69-16.13
		c0.08-3.32,1.04-6.38,2.81-9.09c1.78-2.72,4.38-5.09,7.76-7.05c3.31-1.91,7.18-3.33,11.45-4.27c4.27-0.94,8.95-1.39,13.88-1.39
		c8.7,0,18.15,1.43,27.48,4.17s18.53,6.78,26.72,12.01c0.15,0.1,0.3,0.2,0.45,0.29C244.63,182.9,244.78,183,244.93,183.1z
		 M232.32,238.18c5,0,9.76-0.47,14.1-1.42c4.35-0.95,8.28-2.39,11.65-4.34c3.52-2.04,6.23-4.52,8.08-7.36
		c1.85-2.84,2.85-6.04,2.93-9.52c0.07-2.75-0.45-5.6-1.5-8.48c-1.05-2.88-2.63-5.78-4.7-8.66c3.51,4.08,6.12,8.19,7.73,12.17
		c1.61,3.99,2.22,7.84,1.72,11.4c-0.47,3.38-1.91,6.38-4.25,8.92c-2.34,2.55-5.59,4.64-9.67,6.2c-6.58,2.53-14.74,3.44-23.64,2.96
		c-8.9-0.49-18.54-2.39-28.09-5.5c4.36,1.19,8.74,2.09,13.04,2.69C224.02,237.87,228.25,238.18,232.32,238.18z M164.05,171.24
		c-3.52,2.04-6.23,4.52-8.08,7.36c-1.85,2.84-2.85,6.04-2.93,9.52c-0.07,2.75,0.45,5.6,1.49,8.47c1.05,2.88,2.63,5.78,4.7,8.66
		c-3.51-4.08-6.12-8.19-7.73-12.17c-1.61-3.99-2.22-7.84-1.72-11.4c0.48-3.38,1.91-6.38,4.26-8.92c2.34-2.55,5.59-4.64,9.67-6.2
		c6.56-2.52,14.69-3.44,23.56-2.96c8.87,0.48,18.48,2.36,28,5.44c-9.7-2.61-19.46-3.82-28.32-3.5
		C178.09,165.86,170.13,167.72,164.05,171.24z M239.31,241.06c3.63,0,7.09-0.25,10.35-0.77c3.26-0.52,6.3-1.3,9.07-2.36
		c4.24-1.63,7.61-3.81,10.05-6.47s3.93-5.8,4.43-9.35c0.39-2.77,0.13-5.71-0.72-8.75c-0.85-3.03-2.3-6.16-4.3-9.31
		c3.4,4.46,5.83,8.86,7.19,13.02c1.36,4.16,1.65,8.08,0.76,11.58c-0.87,3.47-2.83,6.41-5.8,8.77c-2.96,2.35-6.93,4.1-11.81,5.2
		c-7.61,1.71-16.74,1.62-26.5,0.05c-9.76-1.57-20.14-4.63-30.26-8.88c6.38,2.34,12.87,4.16,19.2,5.39S233.51,241.06,239.31,241.06z
		 M246.18,244.74c2.24,0,4.42-0.1,6.52-0.31c2.1-0.21,4.11-0.53,6.03-0.96c5.06-1.13,9.16-2.96,12.24-5.42
		c3.07-2.46,5.11-5.54,6.03-9.18c0.69-2.73,0.72-5.67,0.14-8.74c-0.58-3.07-1.79-6.29-3.58-9.59c3.16,4.73,5.28,9.27,6.31,13.49
		c1.03,4.22,0.96,8.1-0.28,11.52c-1.3,3.59-3.82,6.47-7.47,8.58c-3.65,2.11-8.41,3.45-14.21,3.97c-8.68,0.77-18.81-0.44-29.42-3.22
		c-10.62-2.78-21.73-7.13-32.36-12.64c8.45,3.93,17.2,7.06,25.72,9.21C230.35,243.58,238.64,244.74,246.18,244.74z M163.4,160.19
		c-5.06,1.13-9.17,2.96-12.24,5.42c-3.07,2.46-5.11,5.54-6.03,9.19c-0.69,2.73-0.72,5.66-0.14,8.74c0.59,3.07,1.79,6.29,3.58,9.59
		c-3.16-4.73-5.28-9.27-6.31-13.49c-1.03-4.22-0.95-8.1,0.28-11.52c1.3-3.59,3.82-6.47,7.47-8.58c3.65-2.11,8.42-3.45,14.21-3.97
		c0.86-0.08,1.74-0.13,2.63-0.17c0.89-0.04,1.79-0.06,2.71-0.06c8.31,0,17.64,1.54,27.29,4.33c9.65,2.79,19.62,6.82,29.21,11.79
		c-10.97-5.11-22.45-8.87-33.29-10.87C181.94,158.57,171.76,158.31,163.4,160.19z M252.58,249.2c0.92,0,1.84-0.02,2.74-0.06
		c0.9-0.04,1.78-0.1,2.66-0.17c5.97-0.53,10.89-1.93,14.67-4.14c3.77-2.21,6.39-5.22,7.76-8.99c0.96-2.64,1.25-5.55,0.9-8.65
		c-0.35-3.11-1.33-6.42-2.92-9.88c2.88,4.98,4.71,9.69,5.43,13.97c0.72,4.28,0.34,8.13-1.21,11.4c-1.74,3.67-4.93,6.47-9.36,8.3
		c-4.43,1.83-10.1,2.68-16.79,2.47c-9.77-0.29-20.9-2.77-32.35-6.9c-11.45-4.13-23.23-9.89-34.3-16.77
		c10.43,5.93,21.52,10.78,32.3,14.15C232.87,247.31,243.35,249.2,252.58,249.2z M164.15,154.69c-5.97,0.53-10.9,1.93-14.67,4.14
		c-3.77,2.21-6.39,5.22-7.75,8.99c-0.96,2.64-1.25,5.55-0.9,8.66c0.35,3.11,1.33,6.42,2.92,9.87c-2.88-4.98-4.71-9.69-5.43-13.97
		c-0.72-4.28-0.34-8.13,1.21-11.4c1.65-3.5,4.63-6.2,8.73-8.02c4.1-1.82,9.34-2.77,15.52-2.77c0.31,0,0.63,0,0.94,0.01
		s0.63,0.01,0.96,0.02c9.77,0.29,20.89,2.77,32.33,6.89c11.45,4.12,23.22,9.89,34.28,16.76c-11.47-6.52-23.73-11.73-35.51-15.1
		C185.01,155.37,173.71,153.84,164.15,154.69z M256.42,254.34c0.33,0.01,0.65,0.02,0.97,0.02c0.32,0,0.64,0.01,0.95,0.01
		c6.36,0,11.76-1,15.99-2.9c4.24-1.91,7.32-4.73,9.05-8.39c1.2-2.53,1.73-5.38,1.62-8.49c-0.1-3.11-0.85-6.48-2.2-10.05
		c2.54,5.19,4.03,10.02,4.43,14.33c0.4,4.31-0.29,8.11-2.12,11.22c-2.25,3.82-6.13,6.49-11.38,7.93c-5.26,1.45-11.88,1.67-19.63,0.6
		c-10.87-1.5-22.98-5.4-35.21-11c-12.23-5.6-24.58-12.9-35.95-21.23c11.87,8.04,24.84,14.86,37.54,19.76
		C233.19,251.04,245.62,254.01,256.42,254.34z M165.7,149.32c-6.88-0.21-12.71,0.69-17.28,2.6c-4.57,1.91-7.87,4.83-9.69,8.67
		c-1.2,2.53-1.73,5.38-1.62,8.49s0.85,6.48,2.2,10.05c-2.54-5.19-4.04-10.02-4.43-14.33c-0.4-4.31,0.29-8.11,2.12-11.22
		c1.78-3.02,4.57-5.32,8.26-6.86c3.69-1.54,8.27-2.33,13.62-2.33c1.42,0,2.89,0.05,4.41,0.17c1.52,0.11,3.1,0.28,4.72,0.5
		c10.87,1.5,22.98,5.4,35.21,11c12.23,5.6,24.58,12.9,35.95,21.23c-11.87-8.04-24.84-14.86-37.55-19.76
		C188.93,152.62,176.5,149.65,165.7,149.32z M253.99,259.47c1.64,0.23,3.23,0.4,4.77,0.51c1.54,0.11,3.03,0.17,4.46,0.17
		c5.52,0,10.25-0.83,14.07-2.44c3.82-1.61,6.72-4.02,8.58-7.18c1.44-2.44,2.21-5.28,2.33-8.44c0.12-3.16-0.4-6.64-1.56-10.36
		c2.27,5.45,3.46,10.42,3.54,14.79c0.08,4.37-0.95,8.14-3.11,11.18c-2.82,3.97-7.45,6.46-13.59,7.44
		c-6.14,0.97-13.79,0.42-22.65-1.69c-11.91-2.85-24.88-8.27-37.74-15.43c-12.86-7.16-25.61-16.05-37.09-25.83
		c12.07,9.57,25.58,18.06,39.07,24.59C228.54,253.28,242,257.82,253.99,259.47z M168.14,144.19c-7.94-1.1-14.74-0.85-20.14,0.67
		c-5.4,1.52-9.4,4.3-11.75,8.28c-1.44,2.45-2.21,5.28-2.33,8.44c-0.12,3.16,0.41,6.64,1.56,10.36c-2.27-5.45-3.46-10.42-3.54-14.79
		c-0.08-4.37,0.95-8.14,3.11-11.18c1.86-2.62,4.51-4.59,7.85-5.91c3.35-1.32,7.39-1.99,12.05-1.99c2.41,0,4.99,0.18,7.72,0.54
		c2.73,0.36,5.61,0.9,8.63,1.62c11.91,2.85,24.88,8.27,37.74,15.43c12.86,7.16,25.61,16.05,37.09,25.83
		c-12.07-9.57-25.58-18.07-39.06-24.59C193.59,150.39,180.12,145.84,168.14,144.19z M250.62,264.28c3.05,0.73,5.96,1.27,8.71,1.63
		c2.76,0.36,5.37,0.54,7.81,0.54c4.81,0,9-0.7,12.47-2.08c3.47-1.38,6.22-3.45,8.17-6.18c1.6-2.25,2.6-4.86,3.03-7.79
		c0.43-2.94,0.28-6.2-0.44-9.74c1.65,5.33,2.32,10.15,1.99,14.32c-0.33,4.17-1.67,7.71-4.03,10.5c-3.47,4.1-8.92,6.36-16,6.76
		c-7.08,0.39-15.79-1.08-25.79-4.43c-12.89-4.32-26.62-11.4-39.97-20.2c-13.35-8.8-26.33-19.34-37.72-30.61
		c12.07,11.13,25.94,21.38,40.09,29.64C223.07,254.89,237.48,261.14,250.62,264.28z M171.5,139.38c-9.05-2.16-16.87-2.7-23.17-1.67
		c-6.29,1.03-11.06,3.63-13.99,7.76c-1.6,2.24-2.6,4.86-3.03,7.79c-0.43,2.94-0.28,6.2,0.44,9.74c-1.65-5.33-2.32-10.15-1.99-14.32
		s1.67-7.71,4.03-10.5c1.92-2.27,4.45-3.97,7.52-5.11c3.07-1.14,6.69-1.71,10.79-1.71c3.32,0,6.95,0.37,10.88,1.12
		c3.92,0.75,8.14,1.87,12.61,3.37c12.89,4.32,26.62,11.4,39.97,20.2c13.35,8.8,26.33,19.34,37.72,30.61
		c-12.07-11.13-25.94-21.38-40.08-29.63C199.05,148.77,184.64,142.52,171.5,139.38z M246.26,268.64c4.51,1.51,8.76,2.64,12.73,3.4
		c3.97,0.76,7.65,1.13,11.02,1.13c4.24,0,7.99-0.6,11.17-1.78c3.18-1.19,5.81-2.97,7.82-5.34c1.78-2.11,3.01-4.62,3.68-7.49
		c0.67-2.87,0.8-6.1,0.38-9.64c1.19,5.39,1.44,10.2,0.73,14.33c-0.71,4.12-2.36,7.55-4.98,10.15c-4.16,4.15-10.58,6.07-18.7,5.77
		c-8.12-0.3-17.93-2.82-28.9-7.53c-13.89-5.97-28.34-14.88-42.1-25.5c-13.76-10.62-26.82-22.95-37.93-35.8
		c11.85,12.8,25.96,24.97,40.69,35.15C216.6,255.66,231.94,263.83,246.26,268.64z M175.86,135.02c-10.18-3.41-19.07-4.89-26.31-4.45
		c-7.24,0.44-12.83,2.79-16.43,7.05c-1.78,2.11-3.01,4.62-3.68,7.49c-0.67,2.87-0.8,6.1-0.38,9.64c-1.19-5.39-1.44-10.2-0.73-14.33
		c0.71-4.12,2.37-7.54,4.98-10.15c1.94-1.94,4.37-3.39,7.23-4.35c2.87-0.96,6.16-1.45,9.84-1.45c4.21,0,8.91,0.63,14.03,1.89
		c5.12,1.26,10.64,3.15,16.49,5.67c13.89,5.97,28.34,14.88,42.1,25.5c13.76,10.62,26.82,22.95,37.93,35.8
		c-11.86-12.8-25.96-24.98-40.69-35.15C205.52,148,190.18,139.83,175.86,135.02z M240.87,272.44c5.9,2.53,11.47,4.44,16.65,5.71
		c5.17,1.27,9.94,1.91,14.22,1.91c3.8,0,7.21-0.5,10.18-1.51s5.5-2.52,7.52-4.53c1.95-1.95,3.4-4.33,4.33-7.09
		c0.94-2.76,1.36-5.91,1.28-9.39c0.67,5.37,0.45,10.12-0.66,14.14c-1.11,4.01-3.11,7.29-5.98,9.7c-5.01,4.21-12.41,5.72-21.54,4.6
		c-9.14-1.13-20.03-4.88-32.04-11.19c-14.76-7.76-29.76-18.59-43.71-31.08c-13.94-12.49-26.83-26.63-37.37-40.99
		c11.35,14.42,25.43,28.55,40.52,40.71C209.36,255.59,225.46,265.81,240.87,272.44z M181.25,131.22
		c-11.14-4.79-21.13-7.33-29.41-7.6c-8.28-0.27-14.85,1.73-19.15,6.02c-1.96,1.95-3.4,4.33-4.33,7.09
		c-0.93,2.76-1.36,5.91-1.28,9.39c-0.67-5.37-0.45-10.12,0.66-14.13c1.11-4.01,3.11-7.29,5.98-9.71c1.97-1.66,4.31-2.9,6.98-3.72
		c2.67-0.82,5.67-1.23,8.96-1.23c5.07,0,10.84,0.97,17.16,2.9c6.32,1.93,13.19,4.82,20.48,8.65c14.76,7.76,29.76,18.59,43.71,31.08
		c13.94,12.49,26.83,26.63,37.36,40.99c-11.35-14.42-25.43-28.54-40.52-40.71C212.76,148.07,196.66,137.85,181.25,131.22z
		 M226.88,277.86c8.73,5.44,16.99,9.56,24.59,12.33c7.6,2.76,14.53,4.16,20.59,4.16c3.05,0,5.87-0.36,8.45-1.07
		c2.58-0.71,4.91-1.79,6.97-3.23c2.29-1.6,4.17-3.61,5.64-6c1.48-2.39,2.54-5.16,3.2-8.29c-0.49,5.08-1.75,9.44-3.74,13.04
		c-1.99,3.59-4.73,6.41-8.19,8.38c-7.01,4.01-16.64,4.27-27.91,1.06c-11.27-3.2-24.17-9.87-37.71-19.72
		c-16.07-11.69-31.51-26.65-45.04-42.97c-13.53-16.32-25.15-34-33.59-51.13c9.36,17.41,22.44,35.41,37.48,51.73
		C192.67,252.48,209.68,267.13,226.88,277.86z M195.24,125.8c-13.12-8.18-25.19-13.38-35.53-15.45
		c-10.34-2.08-18.93-1.04-25.07,3.27c-2.29,1.6-4.17,3.61-5.64,6c-1.48,2.39-2.54,5.16-3.2,8.28c0.49-5.08,1.75-9.44,3.74-13.04
		c1.99-3.59,4.73-6.41,8.19-8.38c1.91-1.09,4.02-1.91,6.31-2.45c2.28-0.54,4.74-0.81,7.36-0.81c6.97,0,15.04,1.9,23.82,5.59
		c8.78,3.69,18.29,9.16,28.13,16.32c16.07,11.69,31.51,26.65,45.04,42.97c13.53,16.32,25.15,34,33.59,51.13
		c-9.36-17.41-22.44-35.41-37.49-51.73C229.45,151.18,212.44,136.52,195.24,125.8z M218.26,279.23c9.91,7.21,19.5,12.73,28.38,16.44
		c8.88,3.71,17.05,5.62,24.12,5.62c2.69,0,5.22-0.27,7.57-0.83c2.35-0.56,4.52-1.39,6.49-2.52c2.47-1.41,4.59-3.24,6.34-5.45
		c1.75-2.21,3.14-4.81,4.17-7.77c-1.11,4.91-2.93,9.08-5.42,12.45c-2.49,3.37-5.65,5.94-9.45,7.64c-8.26,3.71-19.06,3.14-31.31-1.32
		c-12.25-4.45-25.96-12.79-40.03-24.62c-16.45-13.82-31.71-30.93-44.58-49.16c-12.86-18.23-23.33-37.57-30.18-55.87
		c7.8,18.69,19.85,38.54,34.41,56.97C183.34,249.25,200.41,266.26,218.26,279.23z M203.86,124.43
		c-13.68-9.95-26.74-16.67-38.17-19.89c-11.43-3.21-21.23-2.91-28.39,1.18c-2.47,1.41-4.59,3.24-6.34,5.45
		c-1.75,2.21-3.15,4.81-4.17,7.77c1.11-4.91,2.93-9.08,5.41-12.45c2.49-3.37,5.65-5.94,9.45-7.64c1.83-0.82,3.78-1.43,5.84-1.84
		c2.06-0.4,4.24-0.61,6.51-0.61c8.02,0,17.28,2.49,27.28,7.28c10,4.79,20.74,11.89,31.71,21.1c16.45,13.82,31.71,30.93,44.58,49.16
		c12.86,18.23,23.33,37.57,30.17,55.87c-7.8-18.69-19.85-38.54-34.41-56.97C238.78,154.41,221.71,137.41,203.86,124.43z
		 M208.57,279.55c11.04,9.28,21.87,16.42,31.98,21.24c10.1,4.83,19.48,7.33,27.61,7.33c2.33,0,4.56-0.21,6.68-0.62
		c2.12-0.42,4.12-1.04,5.99-1.88c2.66-1.19,5.02-2.79,7.06-4.78c2.04-1.99,3.77-4.36,5.17-7.09c-1.78,4.67-4.21,8.57-7.23,11.65
		s-6.65,5.34-10.83,6.71c-9.65,3.17-21.63,1.58-34.77-4.27c-13.14-5.85-27.46-15.95-41.77-29.78
		c-16.58-16.02-31.34-35.28-43.17-55.34c-11.83-20.06-20.73-40.93-25.61-60.17c5.84,19.74,16.44,41.32,30.14,61.8
		C173.51,244.83,190.31,264.21,208.57,279.55z M213.55,124.11c-14.21-11.94-28.06-20.34-40.47-24.82
		c-12.41-4.48-23.37-5.03-31.79-1.25c-2.66,1.19-5.01,2.79-7.05,4.78c-2.04,1.98-3.77,4.35-5.17,7.08
		c1.78-4.66,4.21-8.57,7.23-11.65c3.02-3.08,6.65-5.33,10.83-6.71c1.63-0.54,3.34-0.94,5.1-1.2c1.76-0.27,3.59-0.4,5.47-0.4
		c9.21,0,19.76,3.17,30.98,9.21c11.22,6.04,23.11,14.96,35,26.45c16.58,16.02,31.34,35.28,43.17,55.35s20.73,40.93,25.61,60.17
		c-5.84-19.73-16.44-41.32-30.14-61.8C248.62,158.83,231.81,139.45,213.55,124.11z M197.84,278.68
		c11.98,11.57,23.96,20.55,35.29,26.63c11.33,6.08,22,9.27,31.34,9.27c1.92,0,3.78-0.13,5.59-0.41c1.8-0.27,3.54-0.68,5.22-1.23
		c2.88-0.95,5.51-2.3,7.87-4.04c2.35-1.74,4.44-3.86,6.24-6.36c-2.51,4.4-5.61,7.99-9.24,10.73s-7.8,4.63-12.45,5.6
		c-11.14,2.33-24.27-0.52-38.17-7.89c-13.9-7.37-28.55-19.28-42.74-35.06c-16.41-18.25-30.29-39.61-40.69-61.38
		c-10.39-21.76-17.31-43.94-19.81-63.82c3.47,20.49,12.17,43.59,24.6,66.02S179.45,260.92,197.84,278.68z M224.28,124.98
		c-14.44-13.95-28.89-24.13-42.19-30.01c-13.3-5.88-25.44-7.47-35.24-4.25c-2.88,0.95-5.51,2.3-7.87,4.04
		c-2.35,1.74-4.43,3.86-6.24,6.35c2.51-4.4,5.61-7.99,9.24-10.73c3.63-2.74,7.8-4.62,12.44-5.6c1.27-0.27,2.57-0.46,3.89-0.6
		c1.32-0.13,2.67-0.2,4.04-0.2c10.62,0,22.58,3.95,35.02,11.39c12.45,7.44,25.38,18.38,37.95,32.35
		c16.41,18.25,30.29,39.61,40.68,61.38c10.4,21.76,17.32,43.94,19.81,63.82c-3.47-20.49-12.17-43.59-24.59-66.02
		C258.82,164.49,242.67,142.74,224.28,124.98z M124.44,138.64c0.69,20.89,7.02,45.25,17.73,69.44
		c10.7,24.19,25.78,48.21,43.96,68.43c12.65,14.07,25.69,25.08,38.25,32.57c12.56,7.49,24.65,11.46,35.4,11.46
		c1.39,0,2.77-0.07,4.12-0.2c1.35-0.13,2.67-0.34,3.97-0.61c3.17-0.66,6.12-1.74,8.84-3.21c2.72-1.47,5.2-3.33,7.43-5.57
		c-3.33,4.1-7.2,7.35-11.55,9.69c-4.35,2.34-9.17,3.76-14.4,4.23c-12.67,1.12-26.85-3.22-41.28-12.23s-29.09-22.68-42.72-40.23
		c-15.91-20.47-28.48-43.82-37.01-67.1C128.65,182.03,124.17,158.83,124.44,138.64z M297.68,265.02
		c-0.69-20.89-7.02-45.25-17.73-69.44c-10.71-24.19-25.78-48.21-43.96-68.43c-14.29-15.9-29.08-27.88-43.12-35.31
		c-14.04-7.42-27.32-10.28-38.62-7.91c-3.17,0.66-6.13,1.74-8.84,3.21c-2.72,1.47-5.2,3.34-7.43,5.58c3.33-4.11,7.2-7.36,11.55-9.69
		c4.35-2.34,9.17-3.76,14.4-4.23c0.66-0.06,1.32-0.1,1.98-0.13c0.66-0.03,1.33-0.04,2-0.04c12.29,0,25.84,4.84,39.53,13.84
		c13.7,9,27.56,22.16,40.48,38.8c15.91,20.47,28.48,43.82,37.01,67.09C293.47,221.63,297.95,244.83,297.68,265.02z M173.5,272.94
		c13.01,16.75,26.97,29.99,40.79,39.05c13.82,9.06,27.49,13.92,39.93,13.92c0.68,0,1.36-0.01,2.04-0.04
		c0.67-0.03,1.34-0.07,2.01-0.13c3.56-0.32,6.94-1.07,10.11-2.24c3.17-1.17,6.13-2.76,8.88-4.76c-4.29,3.8-9.09,6.64-14.3,8.48
		c-5.22,1.84-10.85,2.68-16.83,2.46c-14.1-0.49-29.13-6.57-43.78-17.27c-14.66-10.7-28.94-26.03-41.55-45.05
		c-15-22.6-25.8-47.73-32.01-72.22c-6.21-24.49-7.82-48.35-4.44-68.43c-2.44,20.88,1.06,46.13,9.57,71.81
		C142.42,224.21,155.93,250.32,173.5,272.94z M248.62,130.72c-13.73-17.67-28.51-31.43-43.07-40.5
		c-14.55-9.07-28.89-13.43-41.7-12.3c-3.57,0.32-6.94,1.07-10.11,2.24c-3.17,1.17-6.14,2.77-8.88,4.76
		c4.08-3.61,8.61-6.35,13.52-8.2s10.21-2.78,15.82-2.78c0.3,0,0.6,0,0.9,0.01c0.3,0,0.6,0.01,0.9,0.02
		c14.1,0.49,29.13,6.57,43.78,17.27c14.66,10.7,28.94,26.03,41.55,45.05c15,22.6,25.8,47.72,32.01,72.21
		c6.21,24.49,7.82,48.35,4.44,68.43c2.44-20.88-1.06-46.13-9.57-71.81C279.7,179.45,266.19,153.34,248.62,130.72z M160.06,267.85
		c12.69,19.13,27.08,34.56,41.85,45.33c14.78,10.77,29.94,16.88,44.18,17.38c0.31,0.01,0.61,0.02,0.92,0.02s0.61,0.01,0.91,0.01
		c3.71,0,7.28-0.4,10.7-1.2c3.42-0.79,6.69-1.98,9.78-3.55c-5.44,3.39-11.34,5.69-17.59,6.86c-6.25,1.17-12.85,1.22-19.7,0.1
		c-15.28-2.49-30.81-10.48-45.31-22.86c-14.5-12.38-27.96-29.15-39.11-49.21c-13.65-24.57-22.21-51.19-25.65-76.54
		c-3.44-25.35-1.78-49.45,5.02-68.99c-5.89,20.43-5.65,46.14,0.2,72.97C132.1,215.01,143.55,242.96,160.06,267.85z M262.06,135.81
		c-12.69-19.13-27.08-34.56-41.86-45.33c-14.77-10.77-29.94-16.88-44.18-17.38c-4.12-0.14-8.08,0.2-11.86,1.02
		c-3.78,0.82-7.37,2.12-10.76,3.86c4.16-2.63,8.58-4.62,13.23-5.95c4.65-1.33,9.52-2,14.56-2c1.6,0,3.22,0.07,4.85,0.2
		c1.63,0.14,3.28,0.34,4.95,0.61c15.28,2.49,30.81,10.48,45.31,22.86c14.5,12.38,27.96,29.15,39.11,49.21
		c13.65,24.58,22.21,51.19,25.65,76.54c3.44,25.35,1.78,49.45-5.02,68.99c5.89-20.43,5.65-46.14-0.2-72.97
		C290.02,188.65,278.58,160.7,262.06,135.81z M145.93,261.16c11.21,20.19,24.77,37.05,39.37,49.5
		c14.61,12.45,30.26,20.49,45.67,23.01c1.69,0.27,3.37,0.48,5.02,0.62c1.66,0.14,3.3,0.21,4.92,0.21c2.94,0,5.82-0.23,8.64-0.67
		c2.81-0.45,5.56-1.12,8.23-2.01c-6.87,2.92-14.14,4.53-21.67,4.83c-7.53,0.3-15.31-0.72-23.22-3.08
		c-16.03-4.77-31.6-14.74-45.49-28.67c-13.89-13.93-26.09-31.83-35.37-52.45c-11.85-26.32-17.68-54.08-17.93-79.88
		c-0.25-25.81,5.07-49.67,15.53-68.21c-9.59,19.51-13.01,45.23-10.29,72.8S130.94,234.17,145.93,261.16z M276.19,142.5
		c-11.21-20.18-24.76-37.05-39.37-49.5c-14.61-12.45-30.26-20.49-45.68-23.01c-4.77-0.78-9.42-1-13.92-0.68
		c-4.5,0.32-8.85,1.19-13.01,2.58c3.84-1.64,7.8-2.87,11.86-3.69c4.06-0.82,8.22-1.24,12.46-1.24c3.37,0,6.78,0.26,10.23,0.78
		c3.45,0.52,6.94,1.3,10.45,2.35c16.03,4.77,31.6,14.74,45.49,28.68c13.89,13.93,26.09,31.83,35.37,52.45
		c11.85,26.32,17.68,54.08,17.93,79.88s-5.07,49.67-15.52,68.21c9.59-19.52,13.01-45.23,10.29-72.8
		C300.05,198.94,291.18,169.49,276.19,142.5z M131.25,252.8c9.34,20.74,21.61,38.74,35.59,52.75s29.66,24.05,45.82,28.86
		c3.56,1.06,7.08,1.85,10.58,2.38c3.49,0.53,6.95,0.79,10.36,0.79c1.94,0,3.86-0.09,5.76-0.26c1.91-0.17,3.79-0.43,5.66-0.77
		c-8.59,2.22-17.46,2.89-26.44,2c-8.98-0.89-18.07-3.33-27.1-7.32c-16.19-7.15-31.24-19.03-44.03-34.28
		c-12.79-15.25-23.3-33.88-30.42-54.54c-9.57-27.76-12.21-56.23-8.88-82.02c3.33-25.79,12.62-48.91,26.91-65.99
		c-13.47,18.14-20.9,43.33-21.73,71.19C112.5,193.46,118.29,223.99,131.25,252.8z M290.87,150.86
		c-9.33-20.74-21.61-38.74-35.59-52.75c-13.98-14.01-29.66-24.05-45.82-28.86c-5.57-1.66-11.07-2.66-16.48-3.02
		c-5.4-0.36-10.69-0.07-15.84,0.86c3.06-0.79,6.16-1.38,9.28-1.78c3.12-0.4,6.27-0.59,9.45-0.59c5.72,0,11.51,0.64,17.32,1.93
		c5.81,1.28,11.64,3.21,17.45,5.77c16.19,7.15,31.24,19.03,44.03,34.28c12.79,15.25,23.3,33.88,30.42,54.54
		c9.57,27.76,12.21,56.23,8.88,82.02c-3.33,25.79-12.62,48.91-26.91,65.99c13.47-18.14,20.9-43.33,21.72-71.19
		C309.62,210.2,303.84,179.67,290.87,150.86z M116.2,242.7c7.16,20.77,17.74,39.51,30.61,54.85c12.87,15.34,28.02,27.29,44.32,34.49
		c5.87,2.59,11.75,4.53,17.62,5.83c5.87,1.3,11.72,1.95,17.5,1.95c0.57,0,1.13-0.01,1.7-0.03c0.57-0.01,1.13-0.03,1.69-0.06
		c-10.51,1.13-21.21,0.45-31.75-1.99c-10.54-2.45-20.91-6.66-30.78-12.58c-15.91-9.54-29.81-22.93-40.95-39.05
		c-11.14-16.12-19.51-34.98-24.36-55.47c-6.83-28.87-5.84-57.58,1.43-82.87c7.27-25.29,20.81-47.14,39.07-62.29
		c-17.49,16.29-29.25,40.43-34.02,68.08C103.53,181.22,105.75,212.38,116.2,242.7z M305.93,160.96
		c-7.16-20.77-17.74-39.51-30.61-54.85C262.46,90.77,247.3,78.82,231,71.62c-6.42-2.83-12.87-4.89-19.29-6.18
		s-12.81-1.79-19.12-1.52c1.63-0.17,3.27-0.31,4.9-0.4c1.64-0.09,3.28-0.14,4.92-0.14c8.93,0,17.92,1.28,26.75,3.81
		c8.83,2.53,17.52,6.31,25.83,11.3c15.91,9.54,29.81,22.93,40.95,39.05c11.14,16.12,19.51,34.98,24.36,55.47
		c6.83,28.87,5.83,57.58-1.43,82.87c-7.27,25.29-20.81,47.14-39.07,62.29c17.49-16.29,29.25-40.43,34.01-68.08
		C318.6,222.44,316.38,191.28,305.93,160.96z M100.95,230.84c4.87,20.6,13.3,39.57,24.5,55.78c11.21,16.21,25.2,29.68,41.21,39.28
		c7.61,4.56,15.51,8.11,23.56,10.64c8.05,2.52,16.24,4.01,24.42,4.45c-0.1,0-0.2,0-0.31,0.01c-0.1,0-0.2,0-0.31,0
		c-14.2,0-28.2-2.65-41.51-7.79c-13.32-5.14-25.95-12.78-37.43-22.76c-13.36-11.62-24.34-25.72-32.55-41.53
		c-8.21-15.81-13.65-33.33-15.92-51.81c-3.63-29.57,1.39-58.03,12.91-82.29c11.51-24.26,29.52-44.31,51.84-57.07
		c-21.61,13.99-37.93,36.53-46.99,63.45C95.31,168.11,93.52,199.39,100.95,230.84z M321.17,172.82c-4.87-20.6-13.3-39.57-24.5-55.78
		c-11.21-16.21-25.2-29.68-41.21-39.28c-7.58-4.55-15.45-8.09-23.47-10.61c-8.02-2.52-16.18-4.02-24.33-4.47c0.07,0,0.14,0,0.21,0
		c0.07,0,0.14,0,0.21,0c14.2,0,28.2,2.65,41.51,7.79c13.32,5.14,25.96,12.78,37.43,22.76c13.36,11.62,24.35,25.72,32.56,41.53
		c8.21,15.81,13.65,33.34,15.92,51.81c2.27,18.48,1.23,36.8-2.91,54.13c-4.14,17.33-11.39,33.67-21.54,48.17
		c-5.61,8.02-11.92,15.21-18.83,21.5s-14.39,11.7-22.35,16.14c21.9-13.84,38.47-36.43,47.69-63.47
		C326.78,235.98,328.66,204.49,321.17,172.82z M71.71,201.83c0-29.84,9.43-57.53,25.47-80.22c16.04-22.7,38.68-40.41,65.11-50.32
		c-25.78,11.21-46.89,31.6-60.56,57.23s-19.92,56.51-15.97,88.69c2.28,18.58,7.75,36.21,16.01,52.12
		c8.26,15.9,19.31,30.09,32.76,41.78c8.89,7.73,18.47,14.07,28.53,18.94c10.06,4.87,20.59,8.27,31.37,10.14
		c-34.51-4.13-65.19-20.91-87.24-45.57C85.13,269.96,71.71,237.43,71.71,201.83z M260.79,332c9.99-4.42,19.36-10.27,27.92-17.42
		c8.56-7.15,16.31-15.6,23.06-25.24c10.22-14.59,17.51-31.03,21.67-48.46c4.17-17.43,5.21-35.86,2.93-54.44
		c-2.28-18.59-7.75-36.21-16.01-52.12c-8.26-15.91-19.31-30.09-32.76-41.78c-8.88-7.73-18.46-14.06-28.51-18.93
		c-10.05-4.87-20.57-8.27-31.34-10.14c34.5,4.14,65.17,20.93,87.21,45.58c22.04,24.65,35.46,57.17,35.46,92.77
		c0,29.66-9.32,57.19-25.18,79.81C309.37,304.26,286.96,321.97,260.79,332z"/>
</g>
</svg>
